<svg xmlns="http://www.w3.org/2000/svg" width="120" height="40" viewBox="0 0 120 40">
    <g fill="none" fill-rule="evenodd">
        <path fill="#FDFEFE" d="M30.193 17.21c.33-2.68-.742-2.77-1.36-2.704-.754.081-1.788.775-2.577 1.96l-3.225 9.963c.09.368.416.745 1.205.66 3.603-.387 5.554-6.607 5.957-9.879zm-2.15-6.19l-.87 2.668c1.103-.978 2.484-1.744 4.199-1.928 2.333-.25 4.018.908 3.508 5.05-.58 4.7-3.297 12.478-9.954 13.193-1.715.185-2.465-.319-2.76-.94l-2.831 8.684L14 39.557l9.104-28.008 4.94-.53zM45.294 11.948c-1.75.188-3.89 4.093-5 7.613 2.663-.459 5.326-3.389 5.682-6.277.107-.87-.03-1.405-.682-1.336m-3.61 13.37c2.71-.29 4.545-1.998 6.505-4.167l1.166-.125c-2.35 3.413-5.665 6.962-10.227 7.453-3.225.346-5.155-1.026-4.67-4.96.493-4.003 3.756-12.631 10.789-13.385 3.053-.33 3.577 1.194 3.362 2.935-.493 4.002-4.648 7.507-8.795 8.191-.095.492-.188.982-.24 1.4-.292 2.366.463 2.835 2.11 2.659"/>
        <path fill="#FDFEFE" d="M57.347 20.168l2.663-8.15c-.017-.413-.227-1.179-1.257-1.069-2.915.313-5.574 6.781-5.977 10.053-.33 2.681.763 2.597 1.38 2.53.962-.102 2.488-1.228 3.17-3.19l.02-.174zM68.329 1.094l-6.26 19.22a5.424 5.424 0 0 0-.275 1.128c-.12.974.287 1.24 1.248 1.136 1.338-.143 2.428-1.565 3.157-3.36l1.44-.155c-2.654 5.883-5.81 6.772-7.663 6.97-1.853.2-2.96-.713-2.993-2.632-1.227 1.712-3.036 3.486-5.472 3.747-2.333.251-4.383-.97-3.873-5.114.579-4.698 4.349-12.487 10.318-13.129 1.956-.21 2.684.468 2.56 1.477l-.017.14 2.667-8.186 5.163-1.242z"/>
        <path fill="#FDFEFE" d="M74.845 7.264l-3.928 12.1a5.547 5.547 0 0 0-.275 1.129c-.12.973.288 1.239 1.248 1.135 1.34-.143 2.736-1.598 3.465-3.393l1.441-.156c-2.655 5.884-6.145 7.015-7.997 7.213-2.058.222-3.517-.86-3.157-3.782.082-.661.28-1.438.554-2.292l3.71-11.424 4.94-.53z"/>
        <path fill="#FDFEFE" d="M84.004 6.28l-3.928 12.1a4.177 4.177 0 0 0-.21.88c-.099.801.052 1.506.841 1.421 1.337-.143 2.392-1.56 3.121-3.357L87.538 5.9l4.94-.53-3.929 12.1a5.565 5.565 0 0 0-.274 1.129c-.12.974.288 1.24 1.248 1.136.652-.07.836-.192 1.158-.33-.48 2.524-2.397 3.796-4.25 3.993-1.886.204-2.968-.918-2.954-2.945-2.067 3.038-4.078 3.701-5.519 3.855-2.058.223-3.517-.858-3.157-3.782.082-.66.279-1.438.554-2.291L79.064 6.81l4.94-.53z"/>
        <path fill="#FEE000" d="M74.215.016c1.51-.162 2.59.958 2.401 2.49-.189 1.53-1.574 2.882-3.083 3.044-1.509.162-2.56-.928-2.372-2.46.19-1.53 1.544-2.912 3.054-3.074"/>
        <path fill="#AEADAE" d="M91.652 18.857s-.916.54-2.18.792c0 0-.838 2.273-4.673 3.456a4.934 4.934 0 0 1-.13.04s3.351-.06 4.855-1.208c1.503-1.147 2.128-3.08 2.128-3.08"/>
        <path fill="#31271E" d="M98.908 6.37a4.612 4.612 0 0 0-5 4.19c-.017.182-.001.36.004.537.49 4.553-2.111 9.188-6.718 11.252-.828.371-1.675.626-2.524.795 1.415.677 5.075.248 7.73-.566 5.703-1.748 9.74-6.014 10.594-10.579.047-.25.08-.5.109-.752a4.61 4.61 0 0 0-4.195-4.877"/>
        <path fill="#F00" d="M101.493 10.842c.021-1.487-1.203-2.77-2.708-2.902a2.865 2.865 0 0 0-2.683 1.34 2.844 2.844 0 0 0-.425 1.264c-.013.151.053.764.073.932.141 1.213-.004 2.757-.475 4.37-.543 1.857-1.4 3.408-2.306 4.341 1.392.208 3.48-1.662 4.892-4.48.348-.695.623-1.386.828-2.052.231-.748.374-1.46.421-2.099.338.527.49 1.205.431 1.921a3.991 3.991 0 0 1-.36 1.361c.722-.322 1.384-.945 1.808-1.791.37-.736.491-1.467.504-2.205"/>
        <path fill="#31271E" d="M105.877 9.067a4.171 4.171 0 0 1 .059 1.778c-.278 1.47-1.295 2.508-2.464 2.67a3.647 3.647 0 0 0 .926-1.851 4.061 4.061 0 0 0-.162-2.115c-.106-.468.138-.933.572-1.06.434-.126.896.132 1.07.578"/>
        <path fill="#FFF" d="M100.35 10.42a.25.25 0 0 1-.233-.159c-.29-.748-.848-.792-.872-.793a.251.251 0 0 1-.235-.263c.007-.137.097-.254.257-.237.037.002.903.047 1.316 1.111a.25.25 0 0 1-.233.341"/>
        <path fill="#FEE000" d="M32.358 36.003c.344-.04.66-.136.949-.28.287-.148.534-.342.741-.585a2.131 2.131 0 0 0 .516-1.404c0-.194-.03-.363-.086-.504a1.017 1.017 0 0 0-.238-.355 1.068 1.068 0 0 0-.484-.245 2.043 2.043 0 0 0-.72-.02l-.574.07-.85 3.411.747-.088zm-.524-4.019l1.255-.15c.426-.052.787-.039 1.082.04.296.077.535.203.721.373.34.312.51.763.51 1.354 0 .365-.064.717-.19 1.055a3.08 3.08 0 0 1-.556.932 3.246 3.246 0 0 1-1.019.794c-.403.205-.865.34-1.384.402l-1.658.198 1.238-4.998z"/>
        <path stroke="#FEE000" stroke-width=".75" d="M32.358 36.003c.344-.04.66-.136.949-.28.287-.148.534-.342.741-.585a2.131 2.131 0 0 0 .516-1.404c0-.194-.03-.363-.086-.504a1.017 1.017 0 0 0-.238-.355 1.068 1.068 0 0 0-.484-.245 2.043 2.043 0 0 0-.72-.02l-.574.07-.85 3.411.747-.088zm-.524-4.019l1.255-.15c.426-.052.787-.039 1.082.04.296.077.535.203.721.373.34.312.51.763.51 1.354 0 .365-.064.717-.19 1.055a3.08 3.08 0 0 1-.556.932 3.246 3.246 0 0 1-1.019.794c-.403.205-.865.34-1.384.402l-1.658.198 1.238-4.998z"/>
        <path fill="#FEE000" d="M39.47 31.07l3.395-.405-.198.792-2.583.309-.322 1.299 2.29-.274-.196.78-2.292.273-.33 1.336 2.623-.314-.197.792-3.43.41z"/>
        <path stroke="#FEE000" stroke-width=".75" d="M39.47 31.07l3.395-.405-.198.792-2.583.309-.322 1.299 2.29-.274-.196.78-2.292.273-.33 1.336 2.623-.314-.197.792-3.43.41z"/>
        <path fill="#FEE000" d="M46.339 30.248l.819-.099-1.041 4.205 2.43-.29-.204.794-3.243.388z"/>
        <path stroke="#FEE000" stroke-width=".75" d="M46.339 30.248l.819-.099-1.041 4.205 2.43-.29-.204.794-3.243.388z"/>
        <path fill="#FEE000" d="M52.977 29.453l.82-.098-1.239 4.998-.819.098z"/>
        <path stroke="#FEE000" stroke-width=".75" d="M52.977 29.453l.82-.098-1.239 4.998-.819.098z"/>
        <path fill="#FEE000" d="M57.027 28.969l.872-.104.418 3.656 2.316-3.984.918-.11-3.147 5.261-.72.087z"/>
        <path stroke="#FEE000" stroke-width=".75" d="M57.027 28.969l.872-.104.418 3.656 2.316-3.984.918-.11-3.147 5.261-.72.087z"/>
        <path fill="#FEE000" d="M64.807 28.037l3.396-.406-.198.793-2.583.308-.323 1.3 2.292-.275-.197.78-2.292.273-.33 1.336 2.623-.313-.198.791-3.428.411z"/>
        <path stroke="#FEE000" stroke-width=".75" d="M64.807 28.037l3.396-.406-.198.793-2.583.308-.323 1.3 2.292-.275-.197.78-2.292.273-.33 1.336 2.623-.313-.198.791-3.428.411z"/>
        <path fill="#FEE000" d="M72.927 29.469a2.2 2.2 0 0 0 .647-.171c.185-.086.332-.194.441-.328a.915.915 0 0 0 .232-.611.585.585 0 0 0-.165-.427.616.616 0 0 0-.304-.142 1.592 1.592 0 0 0-.47-.001l-1.01.12-.42 1.686 1.05-.126zm-1.25-2.254l1.676-.201c.64-.076 1.104.024 1.398.305.223.207.334.499.334.873.001.226-.035.437-.107.633a1.693 1.693 0 0 1-.31.527 1.97 1.97 0 0 1-.494.422 3.116 3.116 0 0 1-.66.297l.86 1.671-.93.112-.796-1.595-.964.114-.428 1.742-.819.098 1.24-4.998z"/>
        <path stroke="#FEE000" stroke-width=".75" d="M72.927 29.469a2.2 2.2 0 0 0 .647-.171c.185-.086.332-.194.441-.328a.915.915 0 0 0 .232-.611.585.585 0 0 0-.165-.427.616.616 0 0 0-.304-.142 1.592 1.592 0 0 0-.47-.001l-1.01.12-.42 1.686 1.05-.126zm-1.25-2.254l1.676-.201c.64-.076 1.104.024 1.398.305.223.207.334.499.334.873.001.226-.035.437-.107.633a1.693 1.693 0 0 1-.31.527 1.97 1.97 0 0 1-.494.422 3.116 3.116 0 0 1-.66.297l.86 1.671-.93.112-.796-1.595-.964.114-.428 1.742-.819.098 1.24-4.998z"/>
        <path fill="#FEE000" d="M79.334 29.222l-1.032-2.801.9-.106.7 2.104 1.83-2.407 1.002-.121-2.607 3.326-.467 1.893-.813.096z"/>
        <path stroke="#FEE000" stroke-width=".75" d="M79.334 29.222l-1.032-2.801.9-.106.7 2.104 1.83-2.407 1.002-.121-2.607 3.326-.467 1.893-.813.096z"/>
    </g>
</svg>
